G75*
%MOIN*%
%OFA0B0*%
%FSLAX25Y25*%
%IPPOS*%
%LPD*%
%AMOC8*
5,1,8,0,0,1.08239X$1,22.5*
%
%ADD10R,0.12598X0.12598*%
%ADD11R,0.15354X0.15354*%
%ADD12C,0.02000*%
%ADD13C,0.02978*%
%ADD14C,0.01600*%
D10*
G36*
X0067080Y0021071D02*
X0063820Y0008903D01*
X0051652Y0012163D01*
X0054912Y0024331D01*
X0067080Y0021071D01*
G37*
G36*
X0083791Y0083437D02*
X0080531Y0071269D01*
X0068363Y0074529D01*
X0071623Y0086697D01*
X0083791Y0083437D01*
G37*
D11*
G36*
X0077124Y0053228D02*
X0073150Y0038398D01*
X0058320Y0042372D01*
X0062294Y0057202D01*
X0077124Y0053228D01*
G37*
D12*
X0077722Y0047800D02*
X0080222Y0045300D01*
X0077722Y0047800D02*
X0067722Y0047800D01*
D13*
X0080222Y0045300D03*
X0057222Y0066800D03*
X0047222Y0076800D03*
X0029222Y0059300D03*
X0034222Y0054800D03*
D14*
X0027222Y0031800D02*
X0042405Y0016617D01*
X0059366Y0016617D01*
X0067722Y0047800D02*
X0057222Y0058300D01*
X0057222Y0066800D01*
X0047222Y0076800D02*
X0037222Y0076800D01*
X0034222Y0073800D01*
X0034222Y0054800D01*
X0029222Y0059300D02*
X0027222Y0057300D01*
X0027222Y0031800D01*
X0029222Y0059300D02*
X0029222Y0078800D01*
X0037222Y0086800D01*
X0068261Y0086800D01*
X0076077Y0078983D01*
M02*
