G75*
%MOIN*%
%OFA0B0*%
%FSLAX25Y25*%
%IPPOS*%
%LPD*%
%AMOC8*
5,1,8,0,0,1.08239X$1,22.5*
%
%ADD10C,0.00300*%
%ADD11C,0.00500*%
%ADD12C,0.00400*%
%ADD13C,0.00000*%
D10*
X0002222Y0051800D02*
X0002237Y0053027D01*
X0002282Y0054253D01*
X0002357Y0055478D01*
X0002463Y0056701D01*
X0002598Y0057921D01*
X0002763Y0059137D01*
X0002958Y0060348D01*
X0003183Y0061555D01*
X0003437Y0062755D01*
X0003720Y0063949D01*
X0004033Y0065136D01*
X0004375Y0066314D01*
X0004746Y0067484D01*
X0005145Y0068644D01*
X0005572Y0069795D01*
X0006028Y0070934D01*
X0006512Y0072062D01*
X0007023Y0073178D01*
X0007561Y0074281D01*
X0008126Y0075370D01*
X0008718Y0076445D01*
X0009336Y0077505D01*
X0009979Y0078550D01*
X0010649Y0079579D01*
X0011343Y0080590D01*
X0012062Y0081585D01*
X0012805Y0082562D01*
X0013571Y0083520D01*
X0014362Y0084459D01*
X0015174Y0085378D01*
X0016010Y0086277D01*
X0016867Y0087155D01*
X0017745Y0088012D01*
X0018644Y0088848D01*
X0019563Y0089660D01*
X0020502Y0090451D01*
X0021460Y0091217D01*
X0022437Y0091960D01*
X0023432Y0092679D01*
X0024443Y0093373D01*
X0025472Y0094043D01*
X0026517Y0094686D01*
X0027577Y0095304D01*
X0028652Y0095896D01*
X0029741Y0096461D01*
X0030844Y0096999D01*
X0031960Y0097510D01*
X0033088Y0097994D01*
X0034227Y0098450D01*
X0035378Y0098877D01*
X0036538Y0099276D01*
X0037708Y0099647D01*
X0038886Y0099989D01*
X0040073Y0100302D01*
X0041267Y0100585D01*
X0042467Y0100839D01*
X0043674Y0101064D01*
X0044885Y0101259D01*
X0046101Y0101424D01*
X0047321Y0101559D01*
X0048544Y0101665D01*
X0049769Y0101740D01*
X0050995Y0101785D01*
X0052222Y0101800D01*
X0053449Y0101785D01*
X0054675Y0101740D01*
X0055900Y0101665D01*
X0057123Y0101559D01*
X0058343Y0101424D01*
X0059559Y0101259D01*
X0060770Y0101064D01*
X0061977Y0100839D01*
X0063177Y0100585D01*
X0064371Y0100302D01*
X0065558Y0099989D01*
X0066736Y0099647D01*
X0067906Y0099276D01*
X0069066Y0098877D01*
X0070217Y0098450D01*
X0071356Y0097994D01*
X0072484Y0097510D01*
X0073600Y0096999D01*
X0074703Y0096461D01*
X0075792Y0095896D01*
X0076867Y0095304D01*
X0077927Y0094686D01*
X0078972Y0094043D01*
X0080001Y0093373D01*
X0081012Y0092679D01*
X0082007Y0091960D01*
X0082984Y0091217D01*
X0083942Y0090451D01*
X0084881Y0089660D01*
X0085800Y0088848D01*
X0086699Y0088012D01*
X0087577Y0087155D01*
X0088434Y0086277D01*
X0089270Y0085378D01*
X0090082Y0084459D01*
X0090873Y0083520D01*
X0091639Y0082562D01*
X0092382Y0081585D01*
X0093101Y0080590D01*
X0093795Y0079579D01*
X0094465Y0078550D01*
X0095108Y0077505D01*
X0095726Y0076445D01*
X0096318Y0075370D01*
X0096883Y0074281D01*
X0097421Y0073178D01*
X0097932Y0072062D01*
X0098416Y0070934D01*
X0098872Y0069795D01*
X0099299Y0068644D01*
X0099698Y0067484D01*
X0100069Y0066314D01*
X0100411Y0065136D01*
X0100724Y0063949D01*
X0101007Y0062755D01*
X0101261Y0061555D01*
X0101486Y0060348D01*
X0101681Y0059137D01*
X0101846Y0057921D01*
X0101981Y0056701D01*
X0102087Y0055478D01*
X0102162Y0054253D01*
X0102207Y0053027D01*
X0102222Y0051800D01*
X0102207Y0050573D01*
X0102162Y0049347D01*
X0102087Y0048122D01*
X0101981Y0046899D01*
X0101846Y0045679D01*
X0101681Y0044463D01*
X0101486Y0043252D01*
X0101261Y0042045D01*
X0101007Y0040845D01*
X0100724Y0039651D01*
X0100411Y0038464D01*
X0100069Y0037286D01*
X0099698Y0036116D01*
X0099299Y0034956D01*
X0098872Y0033805D01*
X0098416Y0032666D01*
X0097932Y0031538D01*
X0097421Y0030422D01*
X0096883Y0029319D01*
X0096318Y0028230D01*
X0095726Y0027155D01*
X0095108Y0026095D01*
X0094465Y0025050D01*
X0093795Y0024021D01*
X0093101Y0023010D01*
X0092382Y0022015D01*
X0091639Y0021038D01*
X0090873Y0020080D01*
X0090082Y0019141D01*
X0089270Y0018222D01*
X0088434Y0017323D01*
X0087577Y0016445D01*
X0086699Y0015588D01*
X0085800Y0014752D01*
X0084881Y0013940D01*
X0083942Y0013149D01*
X0082984Y0012383D01*
X0082007Y0011640D01*
X0081012Y0010921D01*
X0080001Y0010227D01*
X0078972Y0009557D01*
X0077927Y0008914D01*
X0076867Y0008296D01*
X0075792Y0007704D01*
X0074703Y0007139D01*
X0073600Y0006601D01*
X0072484Y0006090D01*
X0071356Y0005606D01*
X0070217Y0005150D01*
X0069066Y0004723D01*
X0067906Y0004324D01*
X0066736Y0003953D01*
X0065558Y0003611D01*
X0064371Y0003298D01*
X0063177Y0003015D01*
X0061977Y0002761D01*
X0060770Y0002536D01*
X0059559Y0002341D01*
X0058343Y0002176D01*
X0057123Y0002041D01*
X0055900Y0001935D01*
X0054675Y0001860D01*
X0053449Y0001815D01*
X0052222Y0001800D01*
X0050995Y0001815D01*
X0049769Y0001860D01*
X0048544Y0001935D01*
X0047321Y0002041D01*
X0046101Y0002176D01*
X0044885Y0002341D01*
X0043674Y0002536D01*
X0042467Y0002761D01*
X0041267Y0003015D01*
X0040073Y0003298D01*
X0038886Y0003611D01*
X0037708Y0003953D01*
X0036538Y0004324D01*
X0035378Y0004723D01*
X0034227Y0005150D01*
X0033088Y0005606D01*
X0031960Y0006090D01*
X0030844Y0006601D01*
X0029741Y0007139D01*
X0028652Y0007704D01*
X0027577Y0008296D01*
X0026517Y0008914D01*
X0025472Y0009557D01*
X0024443Y0010227D01*
X0023432Y0010921D01*
X0022437Y0011640D01*
X0021460Y0012383D01*
X0020502Y0013149D01*
X0019563Y0013940D01*
X0018644Y0014752D01*
X0017745Y0015588D01*
X0016867Y0016445D01*
X0016010Y0017323D01*
X0015174Y0018222D01*
X0014362Y0019141D01*
X0013571Y0020080D01*
X0012805Y0021038D01*
X0012062Y0022015D01*
X0011343Y0023010D01*
X0010649Y0024021D01*
X0009979Y0025050D01*
X0009336Y0026095D01*
X0008718Y0027155D01*
X0008126Y0028230D01*
X0007561Y0029319D01*
X0007023Y0030422D01*
X0006512Y0031538D01*
X0006028Y0032666D01*
X0005572Y0033805D01*
X0005145Y0034956D01*
X0004746Y0036116D01*
X0004375Y0037286D01*
X0004033Y0038464D01*
X0003720Y0039651D01*
X0003437Y0040845D01*
X0003183Y0042045D01*
X0002958Y0043252D01*
X0002763Y0044463D01*
X0002598Y0045679D01*
X0002463Y0046899D01*
X0002357Y0048122D01*
X0002282Y0049347D01*
X0002237Y0050573D01*
X0002222Y0051800D01*
D11*
X0038496Y0040037D02*
X0046971Y0026215D01*
X0054699Y0024144D01*
X0051458Y0012051D01*
X0063932Y0008709D01*
X0067172Y0020802D01*
X0086232Y0015695D01*
X0087583Y0020737D01*
X0081364Y0031721D01*
X0088242Y0057391D01*
X0098971Y0063238D01*
X0099805Y0066349D01*
X0080745Y0071456D01*
X0083985Y0083549D01*
X0071892Y0086789D01*
X0068652Y0074696D01*
X0059958Y0077026D01*
X0046450Y0069722D01*
X0038496Y0040037D01*
X0055705Y0016411D02*
X0055707Y0016531D01*
X0055713Y0016651D01*
X0055723Y0016770D01*
X0055737Y0016889D01*
X0055755Y0017008D01*
X0055776Y0017126D01*
X0055802Y0017243D01*
X0055832Y0017359D01*
X0055865Y0017474D01*
X0055902Y0017588D01*
X0055943Y0017700D01*
X0055988Y0017812D01*
X0056037Y0017921D01*
X0056089Y0018029D01*
X0056144Y0018136D01*
X0056203Y0018240D01*
X0056266Y0018342D01*
X0056332Y0018442D01*
X0056401Y0018540D01*
X0056473Y0018636D01*
X0056549Y0018729D01*
X0056627Y0018819D01*
X0056709Y0018907D01*
X0056793Y0018992D01*
X0056880Y0019075D01*
X0056970Y0019154D01*
X0057063Y0019230D01*
X0057158Y0019303D01*
X0057255Y0019373D01*
X0057355Y0019440D01*
X0057456Y0019503D01*
X0057560Y0019563D01*
X0057666Y0019620D01*
X0057773Y0019673D01*
X0057883Y0019722D01*
X0057994Y0019768D01*
X0058106Y0019810D01*
X0058220Y0019848D01*
X0058334Y0019882D01*
X0058450Y0019913D01*
X0058567Y0019939D01*
X0058685Y0019962D01*
X0058803Y0019981D01*
X0058922Y0019996D01*
X0059042Y0020007D01*
X0059161Y0020014D01*
X0059281Y0020017D01*
X0059401Y0020016D01*
X0059521Y0020011D01*
X0059640Y0020002D01*
X0059759Y0019989D01*
X0059878Y0019972D01*
X0059996Y0019951D01*
X0060113Y0019927D01*
X0060230Y0019898D01*
X0060345Y0019866D01*
X0060459Y0019829D01*
X0060572Y0019789D01*
X0060684Y0019745D01*
X0060794Y0019698D01*
X0060903Y0019647D01*
X0061009Y0019592D01*
X0061114Y0019534D01*
X0061217Y0019472D01*
X0061318Y0019407D01*
X0061416Y0019339D01*
X0061512Y0019267D01*
X0061606Y0019193D01*
X0061697Y0019115D01*
X0061786Y0019034D01*
X0061871Y0018950D01*
X0061954Y0018864D01*
X0062034Y0018774D01*
X0062112Y0018683D01*
X0062185Y0018588D01*
X0062256Y0018492D01*
X0062324Y0018393D01*
X0062388Y0018291D01*
X0062449Y0018188D01*
X0062506Y0018083D01*
X0062560Y0017976D01*
X0062610Y0017867D01*
X0062657Y0017756D01*
X0062700Y0017644D01*
X0062739Y0017531D01*
X0062774Y0017416D01*
X0062805Y0017301D01*
X0062833Y0017184D01*
X0062857Y0017067D01*
X0062877Y0016948D01*
X0062893Y0016830D01*
X0062905Y0016710D01*
X0062913Y0016591D01*
X0062917Y0016471D01*
X0062917Y0016351D01*
X0062913Y0016231D01*
X0062905Y0016112D01*
X0062893Y0015992D01*
X0062877Y0015874D01*
X0062857Y0015755D01*
X0062833Y0015638D01*
X0062805Y0015521D01*
X0062774Y0015406D01*
X0062739Y0015291D01*
X0062700Y0015178D01*
X0062657Y0015066D01*
X0062610Y0014955D01*
X0062560Y0014846D01*
X0062506Y0014739D01*
X0062449Y0014634D01*
X0062388Y0014531D01*
X0062324Y0014429D01*
X0062256Y0014330D01*
X0062185Y0014234D01*
X0062112Y0014139D01*
X0062034Y0014048D01*
X0061954Y0013958D01*
X0061871Y0013872D01*
X0061786Y0013788D01*
X0061697Y0013707D01*
X0061606Y0013629D01*
X0061512Y0013555D01*
X0061416Y0013483D01*
X0061318Y0013415D01*
X0061217Y0013350D01*
X0061114Y0013288D01*
X0061009Y0013230D01*
X0060903Y0013175D01*
X0060794Y0013124D01*
X0060684Y0013077D01*
X0060572Y0013033D01*
X0060459Y0012993D01*
X0060345Y0012956D01*
X0060230Y0012924D01*
X0060113Y0012895D01*
X0059996Y0012871D01*
X0059878Y0012850D01*
X0059759Y0012833D01*
X0059640Y0012820D01*
X0059521Y0012811D01*
X0059401Y0012806D01*
X0059281Y0012805D01*
X0059161Y0012808D01*
X0059042Y0012815D01*
X0058922Y0012826D01*
X0058803Y0012841D01*
X0058685Y0012860D01*
X0058567Y0012883D01*
X0058450Y0012909D01*
X0058334Y0012940D01*
X0058220Y0012974D01*
X0058106Y0013012D01*
X0057994Y0013054D01*
X0057883Y0013100D01*
X0057773Y0013149D01*
X0057666Y0013202D01*
X0057560Y0013259D01*
X0057456Y0013319D01*
X0057355Y0013382D01*
X0057255Y0013449D01*
X0057158Y0013519D01*
X0057063Y0013592D01*
X0056970Y0013668D01*
X0056880Y0013747D01*
X0056793Y0013830D01*
X0056709Y0013915D01*
X0056627Y0014003D01*
X0056549Y0014093D01*
X0056473Y0014186D01*
X0056401Y0014282D01*
X0056332Y0014380D01*
X0056266Y0014480D01*
X0056203Y0014582D01*
X0056144Y0014686D01*
X0056089Y0014793D01*
X0056037Y0014901D01*
X0055988Y0015010D01*
X0055943Y0015122D01*
X0055902Y0015234D01*
X0055865Y0015348D01*
X0055832Y0015463D01*
X0055802Y0015579D01*
X0055776Y0015696D01*
X0055755Y0015814D01*
X0055737Y0015933D01*
X0055723Y0016052D01*
X0055713Y0016171D01*
X0055707Y0016291D01*
X0055705Y0016411D01*
X0073261Y0079587D02*
X0073263Y0079707D01*
X0073269Y0079827D01*
X0073279Y0079946D01*
X0073293Y0080065D01*
X0073311Y0080184D01*
X0073332Y0080302D01*
X0073358Y0080419D01*
X0073388Y0080535D01*
X0073421Y0080650D01*
X0073458Y0080764D01*
X0073499Y0080876D01*
X0073544Y0080988D01*
X0073593Y0081097D01*
X0073645Y0081205D01*
X0073700Y0081312D01*
X0073759Y0081416D01*
X0073822Y0081518D01*
X0073888Y0081618D01*
X0073957Y0081716D01*
X0074029Y0081812D01*
X0074105Y0081905D01*
X0074183Y0081995D01*
X0074265Y0082083D01*
X0074349Y0082168D01*
X0074436Y0082251D01*
X0074526Y0082330D01*
X0074619Y0082406D01*
X0074714Y0082479D01*
X0074811Y0082549D01*
X0074911Y0082616D01*
X0075012Y0082679D01*
X0075116Y0082739D01*
X0075222Y0082796D01*
X0075329Y0082849D01*
X0075439Y0082898D01*
X0075550Y0082944D01*
X0075662Y0082986D01*
X0075776Y0083024D01*
X0075890Y0083058D01*
X0076006Y0083089D01*
X0076123Y0083115D01*
X0076241Y0083138D01*
X0076359Y0083157D01*
X0076478Y0083172D01*
X0076598Y0083183D01*
X0076717Y0083190D01*
X0076837Y0083193D01*
X0076957Y0083192D01*
X0077077Y0083187D01*
X0077196Y0083178D01*
X0077315Y0083165D01*
X0077434Y0083148D01*
X0077552Y0083127D01*
X0077669Y0083103D01*
X0077786Y0083074D01*
X0077901Y0083042D01*
X0078015Y0083005D01*
X0078128Y0082965D01*
X0078240Y0082921D01*
X0078350Y0082874D01*
X0078459Y0082823D01*
X0078565Y0082768D01*
X0078670Y0082710D01*
X0078773Y0082648D01*
X0078874Y0082583D01*
X0078972Y0082515D01*
X0079068Y0082443D01*
X0079162Y0082369D01*
X0079253Y0082291D01*
X0079342Y0082210D01*
X0079427Y0082126D01*
X0079510Y0082040D01*
X0079590Y0081950D01*
X0079668Y0081859D01*
X0079741Y0081764D01*
X0079812Y0081668D01*
X0079880Y0081569D01*
X0079944Y0081467D01*
X0080005Y0081364D01*
X0080062Y0081259D01*
X0080116Y0081152D01*
X0080166Y0081043D01*
X0080213Y0080932D01*
X0080256Y0080820D01*
X0080295Y0080707D01*
X0080330Y0080592D01*
X0080361Y0080477D01*
X0080389Y0080360D01*
X0080413Y0080243D01*
X0080433Y0080124D01*
X0080449Y0080006D01*
X0080461Y0079886D01*
X0080469Y0079767D01*
X0080473Y0079647D01*
X0080473Y0079527D01*
X0080469Y0079407D01*
X0080461Y0079288D01*
X0080449Y0079168D01*
X0080433Y0079050D01*
X0080413Y0078931D01*
X0080389Y0078814D01*
X0080361Y0078697D01*
X0080330Y0078582D01*
X0080295Y0078467D01*
X0080256Y0078354D01*
X0080213Y0078242D01*
X0080166Y0078131D01*
X0080116Y0078022D01*
X0080062Y0077915D01*
X0080005Y0077810D01*
X0079944Y0077707D01*
X0079880Y0077605D01*
X0079812Y0077506D01*
X0079741Y0077410D01*
X0079668Y0077315D01*
X0079590Y0077224D01*
X0079510Y0077134D01*
X0079427Y0077048D01*
X0079342Y0076964D01*
X0079253Y0076883D01*
X0079162Y0076805D01*
X0079068Y0076731D01*
X0078972Y0076659D01*
X0078874Y0076591D01*
X0078773Y0076526D01*
X0078670Y0076464D01*
X0078565Y0076406D01*
X0078459Y0076351D01*
X0078350Y0076300D01*
X0078240Y0076253D01*
X0078128Y0076209D01*
X0078015Y0076169D01*
X0077901Y0076132D01*
X0077786Y0076100D01*
X0077669Y0076071D01*
X0077552Y0076047D01*
X0077434Y0076026D01*
X0077315Y0076009D01*
X0077196Y0075996D01*
X0077077Y0075987D01*
X0076957Y0075982D01*
X0076837Y0075981D01*
X0076717Y0075984D01*
X0076598Y0075991D01*
X0076478Y0076002D01*
X0076359Y0076017D01*
X0076241Y0076036D01*
X0076123Y0076059D01*
X0076006Y0076085D01*
X0075890Y0076116D01*
X0075776Y0076150D01*
X0075662Y0076188D01*
X0075550Y0076230D01*
X0075439Y0076276D01*
X0075329Y0076325D01*
X0075222Y0076378D01*
X0075116Y0076435D01*
X0075012Y0076495D01*
X0074911Y0076558D01*
X0074811Y0076625D01*
X0074714Y0076695D01*
X0074619Y0076768D01*
X0074526Y0076844D01*
X0074436Y0076923D01*
X0074349Y0077006D01*
X0074265Y0077091D01*
X0074183Y0077179D01*
X0074105Y0077269D01*
X0074029Y0077362D01*
X0073957Y0077458D01*
X0073888Y0077556D01*
X0073822Y0077656D01*
X0073759Y0077758D01*
X0073700Y0077862D01*
X0073645Y0077969D01*
X0073593Y0078077D01*
X0073544Y0078186D01*
X0073499Y0078298D01*
X0073458Y0078410D01*
X0073421Y0078524D01*
X0073388Y0078639D01*
X0073358Y0078755D01*
X0073332Y0078872D01*
X0073311Y0078990D01*
X0073293Y0079109D01*
X0073279Y0079228D01*
X0073269Y0079347D01*
X0073263Y0079467D01*
X0073261Y0079587D01*
D12*
X0088548Y0038027D02*
X0090066Y0037620D01*
X0090344Y0037139D01*
X0090141Y0036380D01*
X0089660Y0036102D01*
X0089789Y0035067D02*
X0089382Y0033549D01*
X0089133Y0032616D02*
X0088726Y0031098D01*
X0088476Y0030165D02*
X0088069Y0028647D01*
X0088476Y0030165D02*
X0086198Y0030775D01*
X0086855Y0033227D02*
X0089133Y0032616D01*
X0088447Y0034613D02*
X0088651Y0035373D01*
X0089789Y0035067D02*
X0087512Y0035678D01*
X0087105Y0034159D01*
X0088141Y0036509D02*
X0087863Y0036990D01*
X0088067Y0037749D01*
X0088548Y0038027D01*
D13*
X0015978Y0066504D02*
X0015980Y0066588D01*
X0015986Y0066671D01*
X0015996Y0066754D01*
X0016010Y0066837D01*
X0016027Y0066919D01*
X0016049Y0067000D01*
X0016074Y0067079D01*
X0016103Y0067158D01*
X0016136Y0067235D01*
X0016172Y0067310D01*
X0016212Y0067384D01*
X0016255Y0067456D01*
X0016302Y0067525D01*
X0016352Y0067592D01*
X0016405Y0067657D01*
X0016461Y0067719D01*
X0016519Y0067779D01*
X0016581Y0067836D01*
X0016645Y0067889D01*
X0016712Y0067940D01*
X0016781Y0067987D01*
X0016852Y0068032D01*
X0016925Y0068072D01*
X0017000Y0068109D01*
X0017077Y0068143D01*
X0017155Y0068173D01*
X0017234Y0068199D01*
X0017315Y0068222D01*
X0017397Y0068240D01*
X0017479Y0068255D01*
X0017562Y0068266D01*
X0017645Y0068273D01*
X0017729Y0068276D01*
X0017813Y0068275D01*
X0017896Y0068270D01*
X0017980Y0068261D01*
X0018062Y0068248D01*
X0018144Y0068232D01*
X0018225Y0068211D01*
X0018306Y0068187D01*
X0018384Y0068159D01*
X0018462Y0068127D01*
X0018538Y0068091D01*
X0018612Y0068052D01*
X0018684Y0068010D01*
X0018754Y0067964D01*
X0018822Y0067915D01*
X0018887Y0067863D01*
X0018950Y0067808D01*
X0019010Y0067750D01*
X0019068Y0067689D01*
X0019122Y0067625D01*
X0019174Y0067559D01*
X0019222Y0067491D01*
X0019267Y0067420D01*
X0019308Y0067347D01*
X0019347Y0067273D01*
X0019381Y0067197D01*
X0019412Y0067119D01*
X0019439Y0067040D01*
X0019463Y0066959D01*
X0019482Y0066878D01*
X0019498Y0066796D01*
X0019510Y0066713D01*
X0019518Y0066629D01*
X0019522Y0066546D01*
X0019522Y0066462D01*
X0019518Y0066379D01*
X0019510Y0066295D01*
X0019498Y0066212D01*
X0019482Y0066130D01*
X0019463Y0066049D01*
X0019439Y0065968D01*
X0019412Y0065889D01*
X0019381Y0065811D01*
X0019347Y0065735D01*
X0019308Y0065661D01*
X0019267Y0065588D01*
X0019222Y0065517D01*
X0019174Y0065449D01*
X0019122Y0065383D01*
X0019068Y0065319D01*
X0019010Y0065258D01*
X0018950Y0065200D01*
X0018887Y0065145D01*
X0018822Y0065093D01*
X0018754Y0065044D01*
X0018684Y0064998D01*
X0018612Y0064956D01*
X0018538Y0064917D01*
X0018462Y0064881D01*
X0018384Y0064849D01*
X0018306Y0064821D01*
X0018225Y0064797D01*
X0018144Y0064776D01*
X0018062Y0064760D01*
X0017980Y0064747D01*
X0017896Y0064738D01*
X0017813Y0064733D01*
X0017729Y0064732D01*
X0017645Y0064735D01*
X0017562Y0064742D01*
X0017479Y0064753D01*
X0017397Y0064768D01*
X0017315Y0064786D01*
X0017234Y0064809D01*
X0017155Y0064835D01*
X0017077Y0064865D01*
X0017000Y0064899D01*
X0016925Y0064936D01*
X0016852Y0064976D01*
X0016781Y0065021D01*
X0016712Y0065068D01*
X0016645Y0065119D01*
X0016581Y0065172D01*
X0016519Y0065229D01*
X0016461Y0065289D01*
X0016405Y0065351D01*
X0016352Y0065416D01*
X0016302Y0065483D01*
X0016255Y0065552D01*
X0016212Y0065624D01*
X0016172Y0065698D01*
X0016136Y0065773D01*
X0016103Y0065850D01*
X0016074Y0065929D01*
X0016049Y0066008D01*
X0016027Y0066089D01*
X0016010Y0066171D01*
X0015996Y0066254D01*
X0015986Y0066337D01*
X0015980Y0066420D01*
X0015978Y0066504D01*
X0012921Y0055096D02*
X0012923Y0055180D01*
X0012929Y0055263D01*
X0012939Y0055346D01*
X0012953Y0055429D01*
X0012970Y0055511D01*
X0012992Y0055592D01*
X0013017Y0055671D01*
X0013046Y0055750D01*
X0013079Y0055827D01*
X0013115Y0055902D01*
X0013155Y0055976D01*
X0013198Y0056048D01*
X0013245Y0056117D01*
X0013295Y0056184D01*
X0013348Y0056249D01*
X0013404Y0056311D01*
X0013462Y0056371D01*
X0013524Y0056428D01*
X0013588Y0056481D01*
X0013655Y0056532D01*
X0013724Y0056579D01*
X0013795Y0056624D01*
X0013868Y0056664D01*
X0013943Y0056701D01*
X0014020Y0056735D01*
X0014098Y0056765D01*
X0014177Y0056791D01*
X0014258Y0056814D01*
X0014340Y0056832D01*
X0014422Y0056847D01*
X0014505Y0056858D01*
X0014588Y0056865D01*
X0014672Y0056868D01*
X0014756Y0056867D01*
X0014839Y0056862D01*
X0014923Y0056853D01*
X0015005Y0056840D01*
X0015087Y0056824D01*
X0015168Y0056803D01*
X0015249Y0056779D01*
X0015327Y0056751D01*
X0015405Y0056719D01*
X0015481Y0056683D01*
X0015555Y0056644D01*
X0015627Y0056602D01*
X0015697Y0056556D01*
X0015765Y0056507D01*
X0015830Y0056455D01*
X0015893Y0056400D01*
X0015953Y0056342D01*
X0016011Y0056281D01*
X0016065Y0056217D01*
X0016117Y0056151D01*
X0016165Y0056083D01*
X0016210Y0056012D01*
X0016251Y0055939D01*
X0016290Y0055865D01*
X0016324Y0055789D01*
X0016355Y0055711D01*
X0016382Y0055632D01*
X0016406Y0055551D01*
X0016425Y0055470D01*
X0016441Y0055388D01*
X0016453Y0055305D01*
X0016461Y0055221D01*
X0016465Y0055138D01*
X0016465Y0055054D01*
X0016461Y0054971D01*
X0016453Y0054887D01*
X0016441Y0054804D01*
X0016425Y0054722D01*
X0016406Y0054641D01*
X0016382Y0054560D01*
X0016355Y0054481D01*
X0016324Y0054403D01*
X0016290Y0054327D01*
X0016251Y0054253D01*
X0016210Y0054180D01*
X0016165Y0054109D01*
X0016117Y0054041D01*
X0016065Y0053975D01*
X0016011Y0053911D01*
X0015953Y0053850D01*
X0015893Y0053792D01*
X0015830Y0053737D01*
X0015765Y0053685D01*
X0015697Y0053636D01*
X0015627Y0053590D01*
X0015555Y0053548D01*
X0015481Y0053509D01*
X0015405Y0053473D01*
X0015327Y0053441D01*
X0015249Y0053413D01*
X0015168Y0053389D01*
X0015087Y0053368D01*
X0015005Y0053352D01*
X0014923Y0053339D01*
X0014839Y0053330D01*
X0014756Y0053325D01*
X0014672Y0053324D01*
X0014588Y0053327D01*
X0014505Y0053334D01*
X0014422Y0053345D01*
X0014340Y0053360D01*
X0014258Y0053378D01*
X0014177Y0053401D01*
X0014098Y0053427D01*
X0014020Y0053457D01*
X0013943Y0053491D01*
X0013868Y0053528D01*
X0013795Y0053568D01*
X0013724Y0053613D01*
X0013655Y0053660D01*
X0013588Y0053711D01*
X0013524Y0053764D01*
X0013462Y0053821D01*
X0013404Y0053881D01*
X0013348Y0053943D01*
X0013295Y0054008D01*
X0013245Y0054075D01*
X0013198Y0054144D01*
X0013155Y0054216D01*
X0013115Y0054290D01*
X0013079Y0054365D01*
X0013046Y0054442D01*
X0013017Y0054521D01*
X0012992Y0054600D01*
X0012970Y0054681D01*
X0012953Y0054763D01*
X0012939Y0054846D01*
X0012929Y0054929D01*
X0012923Y0055012D01*
X0012921Y0055096D01*
M02*
